<svg id="Layer_1" enable-background="new 0 0 512.044 512.044" height="512" viewBox="0 0 512.044 512.044" width="512" xmlns="http://www.w3.org/2000/svg" xmlns:xlink="http://www.w3.org/1999/xlink"><linearGradient id="SVGID_1_" gradientUnits="userSpaceOnUse" x1="256.022" x2="256.022" y1=".129" y2="511.915"><stop offset="0" stop-color="#8df49b"/><stop offset="1" stop-color="#589cf9"/></linearGradient><path d="m482.191 126.485c-.49.274-49.815 27.43-117.191 27.43h-20v193.204c-14.311-9.598-31.512-15.204-50-15.204-49.626 0-90 40.374-90 90s40.374 90 90 90 90-40.374 90-90v-136.439c79.155-3.574 116.429-27.811 118.094-28.92l8.906-5.938v-106.703l.044-34.327zm-187.191 345.43c-27.57 0-50-22.43-50-50s22.43-50 50-50 50 22.43 50 50-22.43 50-50 50zm177-244.218c-13.363 5.831-41.761 15.478-87 17.735v-52.192c36.129-2.431 66.342-10.999 87-18.652zm-164-86.929v-106.853l-.042-33.785-29.63 16.279c-.501.275-50.845 27.506-118.328 27.506h-20v193.204c-14.311-9.598-31.512-15.204-50-15.204-49.626 0-90 40.374-90 90s40.374 90 90 90 90-40.374 90-90v-136.437c79.169-3.558 117.199-27.689 118.899-28.794zm-218 221.147c-27.57 0-50-22.43-50-50s22.43-50 50-50 50 22.43 50 50-22.43 50-50 50zm178-244.283c-13.521 5.834-42.338 15.546-88 17.804v-52.194c36.465-2.445 67.115-11.114 88-18.797z" fill="url(#SVGID_1_)"/></svg>